<svg width="326" height="492" viewBox="0 0 326 492" fill="none" xmlns="http://www.w3.org/2000/svg">
<g opacity="0.3">
<path d="M255 119.09C256.102 119.09 256.348 118.558 256.569 117.949H257.529V127.024H256.103V120.101H255.001L255 119.09Z" fill="#61605F"/>
<path d="M259.135 120.127C259.135 118.675 259.9 117.845 261.3 117.845C262.7 117.845 263.465 118.675 263.465 120.127V124.846C263.465 126.298 262.7 127.128 261.3 127.128C259.9 127.128 259.135 126.298 259.135 124.846V120.127ZM260.561 124.937C260.561 125.585 260.846 125.832 261.3 125.832C261.754 125.832 262.039 125.585 262.039 124.937V120.037C262.039 119.389 261.754 119.142 261.3 119.142C260.846 119.142 260.561 119.388 260.561 120.037V124.937Z" fill="#61605F"/>
<path d="M265.266 119.09C266.368 119.09 266.614 118.558 266.835 117.949H267.794V127.024H266.368V120.101H265.266V119.09Z" fill="#61605F"/>
<path d="M269.4 120.127C269.4 118.675 270.165 117.845 271.565 117.845C272.965 117.845 273.73 118.675 273.73 120.127V124.846C273.73 126.298 272.965 127.128 271.565 127.128C270.165 127.128 269.4 126.298 269.4 124.846V120.127ZM270.826 124.937C270.826 125.585 271.111 125.832 271.565 125.832C272.019 125.832 272.304 125.585 272.304 124.937V120.037C272.304 119.389 272.019 119.142 271.565 119.142C271.111 119.142 270.826 119.388 270.826 120.037V124.937Z" fill="#61605F"/>
<path d="M274.533 120.127C274.533 118.675 275.298 117.845 276.698 117.845C278.098 117.845 278.863 118.675 278.863 120.127V124.846C278.863 126.298 278.098 127.128 276.698 127.128C275.298 127.128 274.533 126.298 274.533 124.846V120.127ZM275.959 124.937C275.959 125.585 276.244 125.832 276.698 125.832C277.152 125.832 277.437 125.585 277.437 124.937V120.037C277.437 119.389 277.152 119.142 276.698 119.142C276.244 119.142 275.959 119.388 275.959 120.037V124.937Z" fill="#61605F"/>
<path d="M259.634 109.282C259.634 107.83 260.399 107 261.799 107C263.199 107 263.964 107.83 263.964 109.282V114.001C263.964 115.453 263.199 116.283 261.799 116.283C260.399 116.283 259.634 115.453 259.634 114.001V109.282ZM261.06 114.091C261.06 114.739 261.345 114.986 261.799 114.986C262.253 114.986 262.538 114.739 262.538 114.091V109.19C262.538 108.542 262.253 108.296 261.799 108.296C261.345 108.296 261.06 108.542 261.06 109.19V114.091Z" fill="#61605F"/>
<path d="M265.765 108.244C266.867 108.244 267.113 107.712 267.334 107.103H268.294V116.178H266.868V109.255H265.766L265.765 108.244Z" fill="#61605F"/>
<path d="M270.897 108.244C271.999 108.244 272.246 107.712 272.466 107.103H273.426V116.178H272V109.255H270.898L270.897 108.244Z" fill="#61605F"/>
<path opacity="0.3" d="M214.052 230.476H188.238C186.45 230.476 185 229.026 185 227.238C185 225.45 186.45 224 188.238 224H214.052C215.84 224 217.29 225.45 217.29 227.238C217.29 229.026 215.84 230.476 214.052 230.476Z" fill="#61605F"/>
<path d="M277.725 307.219C277.725 309.398 275.959 311.164 273.78 311.164" stroke="#61605F" stroke-miterlimit="10" stroke-linecap="round" stroke-linejoin="round"/>
<path d="M277.725 307.219C277.725 309.398 279.491 311.164 281.67 311.164" stroke="#61605F" stroke-miterlimit="10" stroke-linecap="round" stroke-linejoin="round"/>
<path d="M277.725 315.135C277.725 312.956 275.959 311.19 273.78 311.19" stroke="#61605F" stroke-miterlimit="10" stroke-linecap="round" stroke-linejoin="round"/>
<path d="M277.725 315.135C277.725 312.956 279.491 311.19 281.67 311.19" stroke="#61605F" stroke-miterlimit="10" stroke-linecap="round" stroke-linejoin="round"/>
<path d="M4.945 360C4.945 362.179 3.179 363.945 1 363.945" stroke="#61605F" stroke-miterlimit="10" stroke-linecap="round" stroke-linejoin="round"/>
<path d="M4.94507 360C4.94507 362.179 6.71107 363.945 8.89007 363.945" stroke="#61605F" stroke-miterlimit="10" stroke-linecap="round" stroke-linejoin="round"/>
<path d="M4.945 367.917C4.945 365.738 3.179 363.972 1 363.972" stroke="#61605F" stroke-miterlimit="10" stroke-linecap="round" stroke-linejoin="round"/>
<path d="M4.94507 367.917C4.94507 365.738 6.71107 363.972 8.89007 363.972" stroke="#61605F" stroke-miterlimit="10" stroke-linecap="round" stroke-linejoin="round"/>
<path d="M166.945 37C166.945 39.179 165.179 40.945 163 40.945" stroke="#61605F" stroke-miterlimit="10" stroke-linecap="round" stroke-linejoin="round"/>
<path d="M166.945 37C166.945 39.179 168.711 40.945 170.89 40.945" stroke="#61605F" stroke-miterlimit="10" stroke-linecap="round" stroke-linejoin="round"/>
<path d="M166.945 44.9159C166.945 42.7369 165.179 40.9709 163 40.9709" stroke="#61605F" stroke-miterlimit="10" stroke-linecap="round" stroke-linejoin="round"/>
<path d="M166.945 44.9159C166.945 42.7369 168.711 40.9709 170.89 40.9709" stroke="#61605F" stroke-miterlimit="10" stroke-linecap="round" stroke-linejoin="round"/>
<path d="M197.945 76C197.945 78.179 196.179 79.945 194 79.945" stroke="#61605F" stroke-miterlimit="10" stroke-linecap="round" stroke-linejoin="round"/>
<path d="M197.945 76C197.945 78.179 199.711 79.945 201.89 79.945" stroke="#61605F" stroke-miterlimit="10" stroke-linecap="round" stroke-linejoin="round"/>
<path d="M197.945 83.9169C197.945 81.7379 196.179 79.9719 194 79.9719" stroke="#61605F" stroke-miterlimit="10" stroke-linecap="round" stroke-linejoin="round"/>
<path d="M197.945 83.9169C197.945 81.7379 199.711 79.9719 201.89 79.9719" stroke="#61605F" stroke-miterlimit="10" stroke-linecap="round" stroke-linejoin="round"/>
<path d="M247.651 286.832C247.651 289.011 245.885 290.777 243.706 290.777" stroke="#61605F" stroke-miterlimit="10" stroke-linecap="round" stroke-linejoin="round"/>
<path d="M247.651 286.832C247.651 289.011 249.417 290.777 251.596 290.777" stroke="#61605F" stroke-miterlimit="10" stroke-linecap="round" stroke-linejoin="round"/>
<path d="M247.651 294.749C247.651 292.57 245.885 290.804 243.706 290.804" stroke="#61605F" stroke-miterlimit="10" stroke-linecap="round" stroke-linejoin="round"/>
<path d="M247.651 294.749C247.651 292.57 249.417 290.804 251.596 290.804" stroke="#61605F" stroke-miterlimit="10" stroke-linecap="round" stroke-linejoin="round"/>
<path opacity="0.3" d="M280.454 308.581H254.64C252.851 308.581 251.402 307.131 251.402 305.343C251.402 303.555 252.852 302.105 254.64 302.105H280.454C282.242 302.105 283.692 303.555 283.692 305.343C283.693 307.131 282.243 308.581 280.454 308.581Z" fill="#61605F"/>
<path d="M304.012 353.289L304.14 355.86C304.218 357.274 304.603 357.686 305.503 357.686H305.914V360.001H304.474C302.88 360.001 301.749 359.101 301.619 357.146L301.414 353.701C301.337 352.517 301.079 352.157 300 352.157V349.843C301.08 349.843 301.337 349.483 301.414 348.3L301.619 344.854C301.748 342.9 302.879 342 304.474 342H305.914V344.314H305.503C304.603 344.314 304.218 344.725 304.14 346.14L304.012 348.712C303.961 349.663 303.652 350.666 302.341 351.001C303.652 351.334 303.961 352.337 304.012 353.289Z" fill="#61605F"/>
<path d="M311.886 348.712L311.758 346.14C311.681 344.726 311.295 344.314 310.395 344.314H309.984V342H311.424C313.019 342 314.15 342.9 314.279 344.854L314.485 348.3C314.562 349.483 314.819 349.843 315.899 349.843V352.157C314.818 352.157 314.562 352.517 314.485 353.701L314.279 357.146C314.151 359.1 313.019 360.001 311.424 360.001H309.984V357.686H310.395C311.295 357.686 311.681 357.275 311.758 355.86L311.886 353.289C311.938 352.337 312.246 351.334 313.558 351C312.246 350.666 311.937 349.663 311.886 348.712Z" fill="#61605F"/>
<path d="M202.201 7.06166C198.224 6.54366 194.581 9.34665 194.062 13.3236C193.603 16.8466 195.751 20.1057 199.012 21.1647L198.903 22.0046C198.868 22.2736 199.038 22.5197 199.291 22.5917L198.835 26.0946L198.674 26.0737C198.51 26.0527 198.364 26.1357 198.348 26.2597L197.129 35.6166C197.11 35.7606 197.249 35.8986 197.44 35.9226L197.377 35.9147L197.328 36.2886C197.315 36.3906 197.413 36.4886 197.548 36.5056L198.153 36.5847L198.758 36.6636C198.893 36.6816 199.013 36.6127 199.026 36.5097L199.075 36.1356L199.012 36.1277C199.202 36.1527 199.372 36.0557 199.391 35.9107L200.61 26.5536C200.626 26.4296 200.507 26.3117 200.343 26.2897L200.182 26.2686L200.638 22.7646C200.901 22.7606 201.129 22.5656 201.164 22.2976L201.265 21.5196C204.86 21.5226 207.986 18.8586 208.463 15.1976C208.981 11.2236 206.178 7.57966 202.201 7.06166ZM200.547 19.7546C199.475 19.6146 198.513 19.1777 197.738 18.5357C196.751 17.7207 196.063 16.5766 195.82 15.2966C195.712 14.7336 195.692 14.1446 195.77 13.5456C196.165 10.5126 198.945 8.37365 201.978 8.76965C202.577 8.84765 203.14 9.01864 203.657 9.26664C204.832 9.82864 205.761 10.7876 206.297 11.9496C206.719 12.8646 206.895 13.9046 206.756 14.9776C206.36 18.0106 203.581 20.1496 200.547 19.7546Z" fill="#61605F"/>
<path d="M220.729 304.623C220.729 306.802 218.963 308.568 216.784 308.568" stroke="#61605F" stroke-miterlimit="10" stroke-linecap="round" stroke-linejoin="round"/>
<path d="M220.729 304.623C220.729 306.802 222.495 308.568 224.674 308.568" stroke="#61605F" stroke-miterlimit="10" stroke-linecap="round" stroke-linejoin="round"/>
<path d="M220.729 312.54C220.729 310.361 218.963 308.595 216.784 308.595" stroke="#61605F" stroke-miterlimit="10" stroke-linecap="round" stroke-linejoin="round"/>
<path d="M220.729 312.54C220.729 310.361 222.495 308.595 224.674 308.595" stroke="#61605F" stroke-miterlimit="10" stroke-linecap="round" stroke-linejoin="round"/>
<path d="M259.209 446.046V443.859L265.411 441.644L259.209 439.429V437.241L268.235 440.564V442.723L259.209 446.046Z" fill="#61605F"/>
<path d="M237.936 442.724V440.565L246.962 437.242V439.43L240.76 441.645L246.962 443.86V446.047L237.936 442.724Z" fill="#61605F"/>
<path d="M255.363 434.978H257.251L251.768 448.884H249.881L255.363 434.978Z" fill="#61605F"/>
<path d="M157.272 76.0679V73.881L163.474 71.6659L157.272 69.4509V67.2629L166.298 70.586V72.7449L157.272 76.0679Z" fill="#61605F"/>
<path d="M136 72.7459V70.5869L145.026 67.2639V69.4519L138.824 71.6669L145.026 73.8819V76.0689L136 72.7459Z" fill="#61605F"/>
<path d="M153.427 65H155.315L149.832 78.906H147.943L153.427 65Z" fill="#61605F"/>
<path d="M260.4 44.4351L262.483 46.5181C264.472 44.5291 267.619 44.4411 269.499 46.3211L270.049 45.7711L271.702 44.1181C270.213 42.6291 268.23 41.9111 266.219 41.9411C264.139 41.9741 262.028 42.8071 260.4 44.4351Z" fill="#61605F"/>
<path d="M262.083 37.8062C260.24 38.4732 258.493 39.5422 257 41.0352L259.083 43.1182C260.631 41.5702 262.532 40.6062 264.497 40.2202C267.572 39.6152 270.805 40.4342 273.096 42.7252L275.299 40.5222C271.806 37.0302 266.642 36.1552 262.083 37.8062Z" fill="#61605F"/>
<path d="M263.861 47.8963L265.892 49.9273L268.041 47.7783C266.919 46.6573 265.048 46.7103 263.861 47.8963Z" fill="#61605F"/>
<path d="M238.818 401.328C238.818 402.267 238.057 403.029 237.117 403.029C236.177 403.029 235.416 402.268 235.416 401.328C235.416 400.389 236.178 399.627 237.117 399.627C238.056 399.627 238.818 400.389 238.818 401.328Z" fill="#61605F"/>
<path d="M245.84 401.328C245.84 402.267 245.079 403.029 244.139 403.029C243.199 403.029 242.438 402.268 242.438 401.328C242.438 400.389 243.2 399.627 244.139 399.627C245.078 399.627 245.84 400.389 245.84 401.328Z" fill="#61605F"/>
<path d="M252.863 401.328C252.863 402.267 252.101 403.029 251.162 403.029C250.223 403.029 249.461 402.268 249.461 401.328C249.461 400.389 250.222 399.627 251.162 399.627C252.102 399.627 252.863 400.389 252.863 401.328Z" fill="#61605F"/>
<path d="M259.886 401.328C259.886 402.267 259.124 403.029 258.185 403.029C257.246 403.029 256.484 402.268 256.484 401.328C256.484 400.389 257.246 399.627 258.185 399.627C259.124 399.627 259.886 400.389 259.886 401.328Z" fill="#61605F"/>
<path d="M161 483.091C162.102 483.091 162.349 482.56 162.569 481.95H163.529V491.025H162.103V484.102H161.001V483.091H161Z" fill="#61605F"/>
<path d="M165.134 484.128C165.134 482.676 165.899 481.846 167.299 481.846C168.699 481.846 169.464 482.676 169.464 484.128V488.847C169.464 490.299 168.699 491.129 167.299 491.129C165.899 491.129 165.134 490.299 165.134 488.847V484.128ZM166.561 488.937C166.561 489.585 166.846 489.832 167.3 489.832C167.754 489.832 168.039 489.585 168.039 488.937V484.037C168.039 483.389 167.754 483.142 167.3 483.142C166.846 483.142 166.561 483.388 166.561 484.037V488.937Z" fill="#61605F"/>
<path d="M171.266 483.091C172.368 483.091 172.614 482.56 172.835 481.95H173.794V491.025H172.368V484.102H171.266V483.091Z" fill="#61605F"/>
<path d="M175.4 484.128C175.4 482.676 176.165 481.846 177.565 481.846C178.965 481.846 179.73 482.676 179.73 484.128V488.847C179.73 490.299 178.965 491.129 177.565 491.129C176.164 491.129 175.4 490.299 175.4 488.847V484.128ZM176.826 488.937C176.826 489.585 177.111 489.832 177.565 489.832C178.019 489.832 178.304 489.585 178.304 488.937V484.037C178.304 483.389 178.019 483.142 177.565 483.142C177.111 483.142 176.826 483.388 176.826 484.037V488.937Z" fill="#61605F"/>
<path d="M180.533 484.128C180.533 482.676 181.298 481.846 182.698 481.846C184.098 481.846 184.863 482.676 184.863 484.128V488.847C184.863 490.299 184.098 491.129 182.698 491.129C181.298 491.129 180.533 490.299 180.533 488.847V484.128ZM181.959 488.937C181.959 489.585 182.244 489.832 182.698 489.832C183.152 489.832 183.437 489.585 183.437 488.937V484.037C183.437 483.389 183.152 483.142 182.698 483.142C182.244 483.142 181.959 483.388 181.959 484.037V488.937Z" fill="#61605F"/>
<path d="M165.633 473.282C165.633 471.83 166.398 471 167.798 471C169.198 471 169.963 471.83 169.963 473.282V478.001C169.963 479.453 169.198 480.283 167.798 480.283C166.397 480.283 165.633 479.453 165.633 478.001V473.282ZM167.06 478.092C167.06 478.74 167.345 478.987 167.799 478.987C168.253 478.987 168.538 478.74 168.538 478.092V473.192C168.538 472.544 168.253 472.297 167.799 472.297C167.345 472.297 167.06 472.543 167.06 473.192V478.092Z" fill="#61605F"/>
<path d="M171.765 472.245C172.867 472.245 173.114 471.713 173.334 471.104H174.294V480.179H172.867V473.256H171.765V472.245Z" fill="#61605F"/>
<path d="M176.897 472.245C177.999 472.245 178.245 471.713 178.466 471.104H179.426V480.179H178V473.256H176.898V472.245H176.897Z" fill="#61605F"/>
<path d="M130.871 10.935C130.871 7.511 129.287 4.452 126.815 2.446C126.761 2.394 126.703 2.348 126.639 2.314C124.785 0.868995 122.462 0 119.935 0C117.41 0 115.088 0.868997 113.235 2.312C113.167 2.347 113.106 2.39499 113.05 2.45099C110.582 4.45799 109 7.51399 109 10.936C109 14.362 110.587 17.422 113.061 19.429C113.107 19.473 113.157 19.511 113.211 19.542C115.068 20.996 117.399 21.872 119.936 21.872C122.463 21.872 124.786 21.002 126.64 19.557C126.703 19.523 126.761 19.478 126.815 19.426C129.286 17.419 130.871 14.36 130.871 10.935ZM126.211 17.812C125.731 17.476 125.226 17.181 124.7 16.927C125.202 15.424 125.515 13.658 125.585 11.74H129.22C129.013 14.14 127.893 16.276 126.211 17.812ZM117.272 17.825C118.126 17.572 119.018 17.434 119.936 17.434C120.854 17.434 121.746 17.571 122.6 17.825C121.837 19.363 120.862 20.26 119.936 20.26C119.01 20.26 118.035 19.363 117.272 17.825ZM116.424 19.568C115.932 19.367 115.464 19.121 115.017 18.843C115.264 18.689 115.516 18.547 115.774 18.418C115.975 18.833 116.191 19.218 116.424 19.568ZM119.936 1.61C120.862 1.61 121.836 2.507 122.6 4.045C121.746 4.298 120.854 4.43599 119.936 4.43599C119.018 4.43599 118.126 4.299 117.272 4.045C118.035 2.507 119.01 1.61 119.936 1.61ZM115.774 3.453C115.516 3.324 115.264 3.182 115.017 3.028C115.463 2.749 115.931 2.50399 116.424 2.30299C116.191 2.65199 115.975 3.037 115.774 3.453ZM123.447 2.302C123.939 2.503 124.407 2.74899 124.854 3.02699C124.607 3.18099 124.355 3.323 124.097 3.452C123.896 3.037 123.679 2.652 123.447 2.302ZM119.936 6.047C121.05 6.047 122.151 5.866 123.205 5.536C123.625 6.825 123.908 8.383 123.976 10.131H115.896C115.964 8.384 116.247 6.825 116.667 5.536C117.72 5.866 118.821 6.047 119.936 6.047ZM123.975 11.74C123.907 13.487 123.624 15.046 123.204 16.334C122.151 16.004 121.049 15.823 119.935 15.823C118.821 15.823 117.719 16.004 116.666 16.334C116.246 15.045 115.963 13.487 115.895 11.74H123.975ZM124.097 18.418C124.355 18.547 124.607 18.689 124.854 18.843C124.408 19.122 123.939 19.367 123.447 19.569C123.679 19.218 123.896 18.833 124.097 18.418ZM129.219 10.13H125.584C125.514 8.21199 125.202 6.44599 124.699 4.94299C125.225 4.68899 125.73 4.394 126.21 4.058C127.893 5.594 129.013 7.73099 129.219 10.13ZM113.66 4.058C114.14 4.394 114.645 4.68899 115.17 4.94299C114.668 6.44599 114.355 8.21099 114.286 10.13H110.651C110.858 7.73099 111.978 5.594 113.66 4.058ZM110.651 11.74H114.286C114.355 13.658 114.668 15.424 115.17 16.927C114.645 17.181 114.139 17.476 113.659 17.812C111.978 16.276 110.858 14.14 110.651 11.74Z" fill="#61605F"/>
<path d="M325.059 400.936C325.059 398.016 323.708 395.408 321.601 393.697C321.555 393.653 321.506 393.614 321.451 393.585C319.87 392.353 317.889 391.611 315.735 391.611C313.581 391.611 311.602 392.352 310.021 393.582C309.963 393.612 309.911 393.653 309.863 393.7C307.758 395.411 306.409 398.018 306.409 400.935C306.409 403.857 307.762 406.466 309.871 408.177C309.911 408.215 309.953 408.247 309.999 408.273C311.583 409.513 313.571 410.26 315.733 410.26C317.888 410.26 319.869 409.518 321.449 408.286C321.503 408.257 321.552 408.218 321.598 408.175C323.707 406.464 325.059 403.856 325.059 400.936ZM321.085 406.8C320.676 406.513 320.245 406.262 319.797 406.045C320.225 404.764 320.492 403.258 320.551 401.622H323.65C323.474 403.668 322.519 405.49 321.085 406.8ZM313.462 406.811C314.19 406.595 314.951 406.478 315.734 406.478C316.517 406.478 317.277 406.595 318.005 406.811C317.354 408.123 316.523 408.888 315.734 408.888C314.944 408.887 314.113 408.122 313.462 406.811ZM312.739 408.297C312.319 408.126 311.92 407.916 311.539 407.678C311.749 407.546 311.965 407.426 312.185 407.316C312.357 407.671 312.541 407.999 312.739 408.297ZM315.734 392.984C316.523 392.984 317.354 393.749 318.005 395.06C317.277 395.276 316.516 395.393 315.734 395.393C314.951 395.393 314.19 395.276 313.462 395.06C314.113 393.749 314.944 392.984 315.734 392.984ZM312.186 394.555C311.966 394.445 311.751 394.324 311.54 394.192C311.921 393.954 312.32 393.745 312.74 393.573C312.541 393.872 312.357 394.201 312.186 394.555ZM318.728 393.574C319.148 393.746 319.547 393.955 319.928 394.193C319.718 394.325 319.502 394.445 319.282 394.556C319.111 394.201 318.926 393.872 318.728 393.574ZM315.734 396.767C316.684 396.767 317.623 396.613 318.521 396.331C318.879 397.43 319.12 398.759 319.178 400.249H312.288C312.346 398.759 312.587 397.43 312.945 396.331C313.844 396.613 314.784 396.767 315.734 396.767ZM319.179 401.622C319.121 403.112 318.88 404.441 318.522 405.54C317.624 405.258 316.685 405.104 315.735 405.104C314.785 405.104 313.846 405.258 312.947 405.54C312.589 404.441 312.348 403.112 312.29 401.622H319.179ZM319.282 407.316C319.502 407.426 319.717 407.547 319.928 407.679C319.547 407.917 319.148 408.126 318.728 408.298C318.926 407.999 319.111 407.671 319.282 407.316ZM323.651 400.249H320.552C320.493 398.613 320.226 397.107 319.798 395.826C320.246 395.609 320.677 395.358 321.086 395.071C322.519 396.381 323.474 398.203 323.651 400.249ZM310.383 395.071C310.792 395.358 311.223 395.609 311.671 395.826C311.243 397.107 310.976 398.613 310.917 400.249H307.818C307.993 398.203 308.948 396.381 310.383 395.071ZM307.817 401.622H310.916C310.975 403.258 311.242 404.764 311.67 406.045C311.222 406.262 310.791 406.513 310.382 406.8C308.948 405.49 307.993 403.668 307.817 401.622Z" fill="#61605F"/>
<path d="M302.65 188.325C302.65 185.405 301.299 182.797 299.192 181.086C299.146 181.042 299.097 181.003 299.042 180.974C297.461 179.742 295.48 179 293.326 179C291.172 179 289.193 179.741 287.612 180.971C287.554 181.001 287.502 181.042 287.454 181.089C285.349 182.8 284 185.407 284 188.324C284 191.246 285.353 193.855 287.462 195.566C287.502 195.604 287.544 195.636 287.59 195.662C289.174 196.902 291.162 197.649 293.324 197.649C295.479 197.649 297.46 196.907 299.04 195.675C299.094 195.646 299.143 195.607 299.189 195.564C301.298 193.853 302.65 191.245 302.65 188.325ZM298.676 194.189C298.267 193.902 297.836 193.651 297.388 193.434C297.816 192.153 298.083 190.647 298.142 189.011H301.241C301.065 191.057 300.11 192.879 298.676 194.189ZM291.053 194.2C291.781 193.984 292.542 193.867 293.325 193.867C294.108 193.867 294.868 193.984 295.596 194.2C294.945 195.512 294.114 196.277 293.325 196.277C292.535 196.276 291.704 195.511 291.053 194.2ZM290.33 195.686C289.91 195.515 289.511 195.305 289.13 195.067C289.34 194.935 289.556 194.815 289.776 194.705C289.948 195.06 290.132 195.388 290.33 195.686ZM293.325 180.373C294.114 180.373 294.945 181.138 295.596 182.449C294.868 182.665 294.107 182.782 293.325 182.782C292.542 182.782 291.781 182.665 291.053 182.449C291.704 181.138 292.535 180.373 293.325 180.373ZM289.777 181.944C289.557 181.834 289.342 181.713 289.131 181.581C289.512 181.343 289.911 181.134 290.331 180.962C290.132 181.261 289.948 181.59 289.777 181.944ZM296.319 180.963C296.739 181.135 297.138 181.344 297.519 181.582C297.309 181.714 297.093 181.834 296.873 181.945C296.702 181.59 296.517 181.261 296.319 180.963ZM293.325 184.156C294.275 184.156 295.214 184.002 296.112 183.72C296.47 184.819 296.711 186.148 296.769 187.638H289.879C289.937 186.148 290.178 184.819 290.536 183.72C291.435 184.002 292.375 184.156 293.325 184.156ZM296.77 189.011C296.712 190.501 296.471 191.83 296.113 192.929C295.215 192.647 294.276 192.493 293.326 192.493C292.376 192.493 291.437 192.647 290.538 192.929C290.18 191.83 289.939 190.501 289.881 189.011H296.77ZM296.873 194.705C297.093 194.815 297.308 194.936 297.519 195.068C297.138 195.306 296.739 195.515 296.319 195.687C296.517 195.388 296.702 195.06 296.873 194.705ZM301.242 187.638H298.143C298.084 186.002 297.817 184.496 297.389 183.215C297.837 182.998 298.268 182.747 298.677 182.46C300.11 183.77 301.065 185.592 301.242 187.638ZM287.974 182.46C288.383 182.747 288.814 182.998 289.262 183.215C288.834 184.496 288.567 186.002 288.508 187.638H285.409C285.584 185.592 286.539 183.77 287.974 182.46ZM285.408 189.011H288.507C288.566 190.647 288.833 192.153 289.261 193.434C288.813 193.651 288.382 193.902 287.973 194.189C286.539 192.879 285.584 191.057 285.408 189.011Z" fill="#61605F"/>
<path d="M230.012 72.289L230.14 74.86C230.218 76.274 230.603 76.686 231.503 76.686H231.914V79.001H230.474C228.88 79.001 227.749 78.101 227.619 76.146L227.414 72.701C227.337 71.517 227.079 71.157 226 71.157V68.843C227.08 68.843 227.337 68.483 227.414 67.3L227.619 63.854C227.748 61.9 228.879 61 230.474 61H231.914V63.314H231.503C230.603 63.314 230.218 63.725 230.14 65.14L230.012 67.712C229.961 68.663 229.652 69.666 228.341 70.001C229.652 70.334 229.961 71.337 230.012 72.289Z" fill="#61605F"/>
<path d="M237.886 67.712L237.758 65.14C237.681 63.726 237.295 63.314 236.395 63.314H235.984V61H237.424C239.019 61 240.15 61.9 240.279 63.854L240.485 67.3C240.562 68.483 240.819 68.843 241.899 68.843V71.157C240.818 71.157 240.562 71.517 240.485 72.701L240.279 76.146C240.151 78.1 239.019 79.001 237.424 79.001H235.984V76.686H236.395C237.295 76.686 237.681 76.275 237.758 74.86L237.886 72.289C237.938 71.337 238.246 70.334 239.558 70C238.246 69.666 237.937 68.663 237.886 67.712Z" fill="#61605F"/>
<path d="M279.945 243C279.945 245.179 278.179 246.945 276 246.945" stroke="#61605F" stroke-miterlimit="10" stroke-linecap="round" stroke-linejoin="round"/>
<path d="M279.945 243C279.945 245.179 281.711 246.945 283.89 246.945" stroke="#61605F" stroke-miterlimit="10" stroke-linecap="round" stroke-linejoin="round"/>
<path d="M279.945 250.917C279.945 248.738 278.179 246.972 276 246.972" stroke="#61605F" stroke-miterlimit="10" stroke-linecap="round" stroke-linejoin="round"/>
<path d="M279.945 250.917C279.945 248.738 281.711 246.972 283.89 246.972" stroke="#61605F" stroke-miterlimit="10" stroke-linecap="round" stroke-linejoin="round"/>
<path d="M261.945 180C261.945 182.179 260.179 183.945 258 183.945" stroke="#61605F" stroke-miterlimit="10" stroke-linecap="round" stroke-linejoin="round"/>
<path d="M261.945 180C261.945 182.179 263.711 183.945 265.89 183.945" stroke="#61605F" stroke-miterlimit="10" stroke-linecap="round" stroke-linejoin="round"/>
<path d="M261.945 187.917C261.945 185.738 260.179 183.972 258 183.972" stroke="#61605F" stroke-miterlimit="10" stroke-linecap="round" stroke-linejoin="round"/>
<path d="M261.945 187.917C261.945 185.738 263.711 183.972 265.89 183.972" stroke="#61605F" stroke-miterlimit="10" stroke-linecap="round" stroke-linejoin="round"/>
<path d="M126.945 395C126.945 397.179 125.179 398.945 123 398.945" stroke="#61605F" stroke-miterlimit="10" stroke-linecap="round" stroke-linejoin="round"/>
<path d="M126.945 395C126.945 397.179 128.711 398.945 130.89 398.945" stroke="#61605F" stroke-miterlimit="10" stroke-linecap="round" stroke-linejoin="round"/>
<path d="M126.945 402.917C126.945 400.738 125.179 398.972 123 398.972" stroke="#61605F" stroke-miterlimit="10" stroke-linecap="round" stroke-linejoin="round"/>
<path d="M126.945 402.917C126.945 400.738 128.711 398.972 130.89 398.972" stroke="#61605F" stroke-miterlimit="10" stroke-linecap="round" stroke-linejoin="round"/>
<path d="M104.945 334C104.945 336.179 103.179 337.945 101 337.945" stroke="#61605F" stroke-miterlimit="10" stroke-linecap="round" stroke-linejoin="round"/>
<path d="M104.945 334C104.945 336.179 106.711 337.945 108.89 337.945" stroke="#61605F" stroke-miterlimit="10" stroke-linecap="round" stroke-linejoin="round"/>
<path d="M104.945 341.917C104.945 339.738 103.179 337.972 101 337.972" stroke="#61605F" stroke-miterlimit="10" stroke-linecap="round" stroke-linejoin="round"/>
<path d="M104.945 341.917C104.945 339.738 106.711 337.972 108.89 337.972" stroke="#61605F" stroke-miterlimit="10" stroke-linecap="round" stroke-linejoin="round"/>
<path d="M64.945 429C64.945 431.179 63.179 432.945 61 432.945" stroke="#61605F" stroke-miterlimit="10" stroke-linecap="round" stroke-linejoin="round"/>
<path d="M64.9451 429C64.9451 431.179 66.7111 432.945 68.8901 432.945" stroke="#61605F" stroke-miterlimit="10" stroke-linecap="round" stroke-linejoin="round"/>
<path d="M64.945 436.917C64.945 434.738 63.179 432.972 61 432.972" stroke="#61605F" stroke-miterlimit="10" stroke-linecap="round" stroke-linejoin="round"/>
<path d="M64.9451 436.917C64.9451 434.738 66.7111 432.972 68.8901 432.972" stroke="#61605F" stroke-miterlimit="10" stroke-linecap="round" stroke-linejoin="round"/>
</g>
</svg>
